<?xml version="1.0" encoding="utf-8"?>
<!-- Generator: Adobe Illustrator 16.0.0, SVG Export Plug-In . SVG Version: 6.00 Build 0)  -->
<!DOCTYPE svg PUBLIC "-//W3C//DTD SVG 1.1//EN" "http://www.w3.org/Graphics/SVG/1.1/DTD/svg11.dtd">
<svg version="1.1" id="图层_1" xmlns="http://www.w3.org/2000/svg" xmlns:xlink="http://www.w3.org/1999/xlink" x="0px" y="0px"
	 width="612px" height="792px" viewBox="0 0 612 792" enable-background="new 0 0 612 792" xml:space="preserve">
<g>
	<g id="XMLID_1_">
		<g>
			<polygon points="162.38,553.55 165.97,556.75 169.63,559.88 173.38,562.93 177.18,565.88 181.06,568.75 184.99,571.53 
				189,574.22 193.06,576.82 197.16,579.34 201.35,581.76 205.59,584.06 209.87,586.26 214.19,588.38 218.56,590.41 222.97,592.35 
				227.43,594.16 231.93,595.88 236.47,597.51 241.06,599.01 245.69,600.43 250.32,601.71 255,602.9 259.68,604 264.4,604.97 
				269.12,605.85 273.88,606.6 278.69,607.26 283.46,607.84 288.26,608.28 293.07,608.59 297.88,608.81 302.69,608.94 307.5,608.94 
				312.35,608.81 317.16,608.59 321.97,608.28 326.78,607.84 331.54,607.26 336.31,606.65 341.07,605.85 345.84,604.97 350.56,604 
				355.24,602.9 359.91,601.71 364.54,600.43 369.18,599.01 373.72,597.51 378.26,595.88 382.76,594.16 387.26,592.35 
				391.68,590.41 396.04,588.43 400.37,586.31 404.65,584.06 408.88,581.76 413.07,579.34 417.18,576.82 421.24,574.22 
				425.25,571.53 429.18,568.75 433.06,565.88 436.85,562.93 440.6,559.88 444.26,556.75 447.84,553.57 451.37,550.26 
				454.81,546.91 454.85,546.87 468.44,560.5 464.82,564.03 461.16,567.47 457.41,570.82 453.57,574.09 449.69,577.31 445.76,580.4 
				441.71,583.44 437.65,586.35 433.46,589.22 429.26,591.96 424.99,594.6 420.66,597.16 416.29,599.63 411.84,602.01 
				407.34,604.31 402.79,606.47 398.25,608.54 393.62,610.53 388.94,612.43 384.22,614.19 379.46,615.87 374.69,617.46 
				369.88,618.91 365.03,620.28 360.18,621.51 355.28,622.66 350.34,623.72 345.4,624.65 340.41,625.44 335.43,626.19 
				330.44,626.76 325.46,627.29 320.43,627.65 315.4,627.96 310.37,628.13 305.34,628.18 300.31,628.13 295.28,627.96 
				290.25,627.69 285.22,627.34 280.24,626.81 275.21,626.24 270.26,625.53 265.28,624.69 260.34,623.81 255.4,622.75 250.5,621.6 
				245.6,620.37 240.79,619.04 235.94,617.59 231.18,616 226.41,614.37 221.69,612.6 217.06,610.71 212.43,608.72 207.84,606.69 
				203.29,604.49 198.79,602.24 194.34,599.85 189.97,597.38 185.6,594.82 181.32,592.18 177.13,589.44 172.99,586.62 
				168.88,583.66 164.82,580.66 160.9,577.57 156.97,574.4 153.18,571.09 149.38,567.74 148.76,567.16 145.72,564.34 142.1,560.81 
				138.57,557.19 135.15,553.56 203.07,485.59 216.66,499.22 162.4,553.53 			"/>
			<path d="M390.22,318.78l-99.93,99.97v0.04l2.47-0.44l2.48-0.35l2.51-0.22l2.51-0.13h2.56l2.52,0.13l2.51,0.18l2.471,0.35
				l2.52,0.4l2.42,0.57l2.48,0.62l2.38,0.75l2.38,0.88l2.34,0.97l2.29,1.06l2.21,1.15l2.2,1.23l2.12,1.369l2.08,1.45l1.979,1.5
				l1.94,1.641l1.899,1.72l1.761,1.76l1.72,1.86l1.64,1.939l1.5,1.98l1.45,2.08l1.37,2.109l1.28,2.16l1.149,2.25l1.061,2.3
				l0.97,2.341l0.88,2.34l0.75,2.42l0.66,2.43l0.57,2.47l0.439,2.471l0.311,2.51l0.22,2.52l0.14,2.511v2.52l-0.14,2.51l-0.22,2.521
				l-0.311,2.51l-0.439,2.47l-0.53,2.471l-0.66,2.43l-0.75,2.43l-0.88,2.38l-0.97,2.341l-1.061,2.25l-1.149,2.25l-1.28,2.199
				l-1.32,2.12l-1.46,2.07l-1.54,1.99l-1.63,1.939l-1.68,1.851l-1.811,1.81l-1.85,1.68l-1.9,1.631l-2.029,1.55l-2.07,1.45
				l-2.12,1.319l-2.16,1.28l-2.25,1.15l-2.29,1.06l-2.34,0.97l-2.34,0.88l-2.43,0.75l-2.42,0.66l-2.471,0.53l-2.47,0.45l-2.52,0.3
				l-2.51,0.22l-2.52,0.141h-2.51l-2.52-0.141l-2.51-0.22l-2.52-0.3l-2.47-0.45l-2.47-0.57l-2.42-0.66l-2.39-0.75l-2.38-0.88
				l-2.34-0.97l-2.25-1.06l-2.25-1.15l-2.2-1.28l-2.12-1.37l-2.03-1.449l-2.03-1.551l-1.9-1.63l-1.85-1.68l-1.81-1.8l-1.68-1.86
				l-1.63-1.939l-1.54-1.98l-1.41-2.08l-1.37-2.16l-1.24-2.16l-1.19-2.25l-1.06-2.3l-0.92-2.33l-0.89-2.39l-0.75-2.38l-0.61-2.42
				l-0.58-2.48l-0.39-2.51l-0.36-2.47l-0.17-2.521l-0.14-2.51v-2.56l0.14-2.511l0.22-2.52l0.35-2.47l0.44-2.511h-0.04l-18.27,18.261
				l-6.79-6.79l99.93-100.021l-2.48,0.44l-2.51,0.36l-2.56,0.22l-2.511,0.13h-2.56l-2.56-0.13l-2.52-0.22l-2.51-0.31l-2.52-0.44
				l-2.47-0.58l-2.47-0.66l-2.42-0.75l-2.39-0.88l-2.33-0.97l-2.3-1.1l-2.25-1.2l-2.2-1.28l-2.17-1.36l-2.07-1.46l-1.98-1.59
				l-1.95-1.63l-1.85-1.72l-1.81-1.81l-1.67-1.9l-1.64-1.94l-1.54-2.03l-1.46-2.11l-1.32-2.17l-1.28-2.2l-1.15-2.25l-1.01-2.34
				l-0.97-2.34l-0.84-2.42l-0.75-2.43l-0.62-2.47l-0.53-2.47l-0.39-2.52l-0.31-2.56l-0.18-2.51l-0.09-2.56l0.05-2.51l0.13-2.56
				l0.26-2.52l0.4-2.51l0.44-2.52l0.62-2.47l0.71-2.47l0.79-2.38l0.93-2.38l1.01-2.34l1.1-2.3l1.24-2.25l1.28-2.16l1.41-2.11
				l1.5-2.08l1.59-1.98l1.68-1.9l1.76-1.85l-0.04-0.05l40.85-40.85l6.79,6.84l-40.85,40.85l0.04,0.04l-1.58,1.64l-1.5,1.72
				l-1.42,1.81l-1.32,1.85l-1.23,1.94l-1.15,1.99l-1.02,2.03l-0.97,2.11l-0.84,2.12l-0.75,2.16l-0.66,2.21l-0.53,2.2l-0.44,2.25
				l-0.31,2.25l-0.22,2.3l-0.13,2.29v2.3l0.13,2.29l0.22,2.29l0.31,2.25l0.44,2.25l0.53,2.21l0.66,2.21l0.75,2.16l0.84,2.12
				l0.97,2.11l1.02,2.03l1.15,1.99l1.23,1.94l1.32,1.85l1.42,1.81l1.5,1.72l1.58,1.63l1.68,1.59l1.72,1.5l1.81,1.41l1.85,1.37
				l1.94,1.24l1.99,1.14l2.03,1.02l2.07,0.97l2.12,0.84l2.16,0.75l2.21,0.66l2.2,0.53l2.25,0.44l2.3,0.31l2.25,0.22l2.29,0.13h2.3
				l2.29-0.13l2.25-0.22l2.29-0.31l2.25-0.44l2.21-0.53l2.21-0.66l2.16-0.75l2.12-0.84l2.069-0.97l2.03-1.02l1.98-1.14l1.939-1.24
				l1.86-1.37l1.81-1.41l1.721-1.5l1.67-1.59l40.81-40.85L390.22,318.78z M349.81,475.4l-0.05-2.301l-0.17-2.29l-0.27-2.25
				l-0.391-2.25l-0.489-2.25l-0.57-2.21l-0.71-2.199l-0.79-2.12l-0.93-2.12l-0.971-2.07l-1.1-2.03l-1.19-1.939l-1.279-1.9
				l-1.37-1.81l-1.46-1.76l-1.54-1.721l-1.63-1.64L333.22,439l-1.76-1.46l-1.86-1.36l-1.89-1.279l-1.95-1.19l-2.02-1.11l-2.03-0.97
				l-2.12-0.92l-2.12-0.8l-2.21-0.7l-2.2-0.58l-2.25-0.479l-2.25-0.4l-2.25-0.26l-2.3-0.181l-2.29-0.05l-2.29,0.05l-2.3,0.181
				l-2.25,0.26l-2.25,0.4l-2.25,0.479l-2.2,0.58l-2.21,0.7l-2.12,0.8l-2.11,0.92l-2.03,0.97l-2.03,1.11l-1.94,1.19l-1.9,1.279
				l-1.85,1.36l-1.77,1.46l-1.68,1.54l-1.63,1.64l-1.54,1.721l-1.46,1.76l-1.37,1.81l-1.28,1.9l-1.19,1.939l-1.1,2.03l-0.97,2.07
				l-0.93,2.12l-0.79,2.12l-0.71,2.199l-0.57,2.21l-0.49,2.25l-0.39,2.25l-0.27,2.25l-0.17,2.29l-0.05,2.301l0.05,2.29l0.17,2.3
				l0.27,2.25l0.39,2.25l0.49,2.25l0.57,2.2l0.71,2.21l0.79,2.109l0.93,2.12l0.97,2.08l1.1,1.98l1.19,1.989l1.28,1.891l1.37,1.81
				l1.46,1.771l1.54,1.72l1.63,1.63l1.68,1.54l1.77,1.46l1.85,1.37l1.9,1.28l1.94,1.189l2.03,1.101l2.03,0.97l2.11,0.93l2.12,0.79
				l2.21,0.71l2.2,0.57l2.25,0.49l2.25,0.39l2.25,0.27l2.3,0.181l2.29,0.04l2.29-0.04l2.3-0.181l2.25-0.27l2.25-0.39l2.25-0.49
				l2.2-0.57l2.21-0.71l2.12-0.79l2.12-0.93l2.03-0.97l2.02-1.101l1.95-1.189l1.89-1.28l1.86-1.37l1.76-1.46l1.681-1.54l1.63-1.63
				l1.54-1.72l1.46-1.771l1.37-1.81l1.279-1.891l1.19-1.989l1.1-1.98l0.971-2.08l0.93-2.12l0.79-2.109l0.71-2.21l0.57-2.2
				l0.489-2.25l0.391-2.25l0.27-2.25l0.17-2.3L349.81,475.4z"/>
			<polygon points="447.85,240.63 444.26,237.43 440.6,234.29 436.85,231.25 433.06,228.29 429.18,225.43 425.25,222.65 
				421.24,219.96 417.18,217.35 413.07,214.84 408.88,212.41 404.65,210.12 400.37,207.91 396.04,205.79 391.68,203.76 
				387.26,201.82 382.81,200.01 378.31,198.29 373.76,196.66 369.18,195.16 364.54,193.75 359.91,192.47 355.24,191.28 
				350.56,190.18 345.84,189.21 341.12,188.32 336.35,187.57 331.54,186.91 326.78,186.34 321.97,185.9 317.16,185.59 
				312.35,185.37 307.54,185.24 302.74,185.24 297.88,185.37 293.07,185.59 288.26,185.9 283.46,186.34 278.69,186.91 
				273.93,187.53 269.16,188.32 264.4,189.21 259.68,190.18 255,191.28 250.32,192.47 245.69,193.75 241.06,195.16 236.51,196.66 
				231.97,198.29 227.47,200.01 222.97,201.82 218.56,203.76 214.19,205.75 209.87,207.87 205.59,210.12 201.35,212.41 
				197.16,214.84 193.06,217.35 189,219.96 184.99,222.65 181.06,225.43 177.18,228.29 173.38,231.25 169.63,234.29 165.97,237.43 
				162.4,240.6 158.87,243.91 155.43,247.26 141.82,233.66 145.41,230.15 149.07,226.71 152.82,223.35 156.66,220.09 160.54,216.87 
				164.47,213.78 168.53,210.74 172.59,207.82 176.78,204.96 180.97,202.22 185.25,199.57 189.57,197.01 193.94,194.54 
				198.4,192.16 202.9,189.87 207.44,187.71 211.99,185.63 216.62,183.65 221.29,181.75 226.01,179.99 230.78,178.31 235.54,176.72 
				240.35,175.26 245.21,173.9 250.06,172.66 254.96,171.51 259.9,170.46 264.84,169.53 269.82,168.74 274.81,167.99 279.79,167.41 
				284.78,166.88 289.81,166.53 294.84,166.22 299.87,166.04 304.9,166 309.93,166.04 314.96,166.22 319.99,166.49 325.01,166.84 
				330,167.37 335.03,167.94 339.97,168.65 344.96,169.49 349.9,170.37 354.84,171.43 359.74,172.57 364.63,173.81 369.44,175.13 
				374.29,176.59 379.06,178.18 383.82,179.81 388.54,181.57 393.18,183.47 397.81,185.46 402.4,187.49 406.94,189.69 
				411.44,191.94 415.9,194.32 420.26,196.79 424.63,199.35 428.91,202 433.1,204.74 437.25,207.56 441.35,210.51 445.41,213.51 
				449.34,216.6 453.26,219.78 457.06,223.09 460.85,226.44 464.51,229.84 468.13,233.37 471.66,236.99 475.08,240.63 
				407.21,308.54 393.62,294.91 			"/>
		</g>
		<g>
			<polyline fill="none" stroke="#212830" stroke-width="0" stroke-linecap="square" stroke-miterlimit="10" points="135.13,553.53 
				135.15,553.56 138.57,557.19 142.1,560.81 145.72,564.34 148.76,567.16 149.38,567.74 153.18,571.09 156.97,574.4 160.9,577.57 
				164.82,580.66 168.88,583.66 172.99,586.62 177.13,589.44 181.32,592.18 185.6,594.82 189.97,597.38 194.34,599.85 
				198.79,602.24 203.29,604.49 207.84,606.69 212.43,608.72 217.06,610.71 221.69,612.6 226.41,614.37 231.18,616 235.94,617.59 
				240.79,619.04 245.6,620.37 250.5,621.6 255.4,622.75 260.34,623.81 265.28,624.69 270.26,625.53 275.21,626.24 280.24,626.81 
				285.22,627.34 290.25,627.69 295.28,627.96 300.31,628.13 305.34,628.18 310.37,628.13 315.4,627.96 320.43,627.65 
				325.46,627.29 330.44,626.76 335.43,626.19 340.41,625.44 345.4,624.65 350.34,623.72 355.28,622.66 360.18,621.51 
				365.03,620.28 369.88,618.91 374.69,617.46 379.46,615.87 384.22,614.19 388.94,612.43 393.62,610.53 398.25,608.54 
				402.79,606.47 407.34,604.31 411.84,602.01 416.29,599.63 420.66,597.16 424.99,594.6 429.26,591.96 433.46,589.22 
				437.65,586.35 441.71,583.44 445.76,580.4 449.69,577.31 453.57,574.09 457.41,570.82 461.16,567.47 464.82,564.03 468.44,560.5 
							"/>
			<polyline fill="none" stroke="#212830" stroke-width="0" stroke-linecap="square" stroke-miterlimit="10" points="162.35,553.53 
				162.38,553.55 165.97,556.75 169.63,559.88 173.38,562.93 177.18,565.88 181.06,568.75 184.99,571.53 189,574.22 193.06,576.82 
				197.16,579.34 201.35,581.76 205.59,584.06 209.87,586.26 214.19,588.38 218.56,590.41 222.97,592.35 227.43,594.16 
				231.93,595.88 236.47,597.51 241.06,599.01 245.69,600.43 250.32,601.71 255,602.9 259.68,604 264.4,604.97 269.12,605.85 
				273.88,606.6 278.69,607.26 283.46,607.84 288.26,608.28 293.07,608.59 297.88,608.81 302.69,608.94 307.5,608.94 312.35,608.81 
				317.16,608.59 321.97,608.28 326.78,607.84 331.54,607.26 336.31,606.65 341.07,605.85 345.84,604.97 350.56,604 355.24,602.9 
				359.91,601.71 364.54,600.43 369.18,599.01 373.72,597.51 378.26,595.88 382.76,594.16 387.26,592.35 391.68,590.41 
				396.04,588.43 400.37,586.31 404.65,584.06 408.88,581.76 413.07,579.34 417.18,576.82 421.24,574.22 425.25,571.53 
				429.18,568.75 433.06,565.88 436.85,562.93 440.6,559.88 444.26,556.75 447.84,553.57 451.37,550.26 454.81,546.91 			"/>
			
				<line fill="none" stroke="#212830" stroke-width="0" stroke-linecap="square" stroke-miterlimit="10" x1="226.85" y1="482.19" x2="245.12" y2="463.93"/>
			
				<line fill="none" stroke="#212830" stroke-width="0" stroke-linecap="square" stroke-miterlimit="10" x1="290.29" y1="418.75" x2="390.22" y2="318.78"/>
			
				<line fill="none" stroke="#212830" stroke-width="0" stroke-linecap="square" stroke-miterlimit="10" x1="267.71" y1="277.88" x2="308.56" y2="237.03"/>
			
				<line fill="none" stroke="#212830" stroke-width="0" stroke-linecap="square" stroke-miterlimit="10" x1="274.5" y1="284.72" x2="315.35" y2="243.87"/>
			
				<line fill="none" stroke="#212830" stroke-width="0" stroke-linecap="square" stroke-miterlimit="10" x1="220.06" y1="475.4" x2="319.99" y2="375.38"/>
			
				<line fill="none" stroke="#212830" stroke-width="0" stroke-linecap="square" stroke-miterlimit="10" x1="342.57" y1="352.79" x2="383.38" y2="311.94"/>
			<polyline fill="none" stroke="#212830" stroke-width="0" stroke-linecap="square" stroke-miterlimit="10" points="135,553.71 
				135.15,553.56 203.07,485.59 			"/>
			
				<line fill="none" stroke="#212830" stroke-width="0" stroke-linecap="square" stroke-miterlimit="10" x1="148.63" y1="567.29" x2="148.76" y2="567.16"/>
			
				<line fill="none" stroke="#212830" stroke-width="0" stroke-linecap="square" stroke-miterlimit="10" x1="162.4" y1="553.53" x2="216.66" y2="499.22"/>
			
				<line fill="none" stroke="#212830" stroke-width="0" stroke-linecap="square" stroke-miterlimit="10" x1="454.85" y1="546.87" x2="468.44" y2="560.5"/>
			<polyline fill="none" stroke="#000000" stroke-width="0" stroke-linecap="square" stroke-miterlimit="10" points="475.1,240.65 
				475.08,240.63 471.66,236.99 468.13,233.37 464.51,229.84 460.85,226.44 457.06,223.09 453.26,219.78 449.34,216.6 
				445.41,213.51 441.35,210.51 437.25,207.56 433.1,204.74 428.91,202 424.63,199.35 420.26,196.79 415.9,194.32 411.44,191.94 
				406.94,189.69 402.4,187.49 397.81,185.46 393.18,183.47 388.54,181.57 383.82,179.81 379.06,178.18 374.29,176.59 
				369.44,175.13 364.63,173.81 359.74,172.57 354.84,171.43 349.9,170.37 344.96,169.49 339.97,168.65 335.03,167.94 330,167.37 
				325.01,166.84 319.99,166.49 314.96,166.22 309.93,166.04 304.9,166 299.87,166.04 294.84,166.22 289.81,166.53 284.78,166.88 
				279.79,167.41 274.81,167.99 269.82,168.74 264.84,169.53 259.9,170.46 254.96,171.51 250.06,172.66 245.21,173.9 240.35,175.26 
				235.54,176.72 230.78,178.31 226.01,179.99 221.29,181.75 216.62,183.65 211.99,185.63 207.44,187.71 202.9,189.87 198.4,192.16 
				193.94,194.54 189.57,197.01 185.25,199.57 180.97,202.22 176.78,204.96 172.59,207.82 168.53,210.74 164.47,213.78 
				160.54,216.87 156.66,220.09 152.82,223.35 149.07,226.71 145.41,230.15 141.82,233.66 141.79,233.68 			"/>
			<polyline fill="none" stroke="#000000" stroke-width="0" stroke-linecap="square" stroke-miterlimit="10" points="447.88,240.65 
				447.85,240.63 444.26,237.43 440.6,234.29 436.85,231.25 433.06,228.29 429.18,225.43 425.25,222.65 421.24,219.96 
				417.18,217.35 413.07,214.84 408.88,212.41 404.65,210.12 400.37,207.91 396.04,205.79 391.68,203.76 387.26,201.82 
				382.81,200.01 378.31,198.29 373.76,196.66 369.18,195.16 364.54,193.75 359.91,192.47 355.24,191.28 350.56,190.18 
				345.84,189.21 341.12,188.32 336.35,187.57 331.54,186.91 326.78,186.34 321.97,185.9 317.16,185.59 312.35,185.37 
				307.54,185.24 302.74,185.24 297.88,185.37 293.07,185.59 288.26,185.9 283.46,186.34 278.69,186.91 273.93,187.53 
				269.16,188.32 264.4,189.21 259.68,190.18 255,191.28 250.32,192.47 245.69,193.75 241.06,195.16 236.51,196.66 231.97,198.29 
				227.47,200.01 222.97,201.82 218.56,203.76 214.19,205.75 209.87,207.87 205.59,210.12 201.35,212.41 197.16,214.84 
				193.06,217.35 189,219.96 184.99,222.65 181.06,225.43 177.18,228.29 173.38,231.25 169.63,234.29 165.97,237.43 162.4,240.6 
				158.87,243.91 155.43,247.26 			"/>
			<polyline fill="none" stroke="#000000" stroke-width="0" stroke-linecap="square" stroke-miterlimit="10" points="393.62,294.91 
				447.85,240.63 447.88,240.6 			"/>
			
				<line fill="none" stroke="#000000" stroke-width="0" stroke-linecap="square" stroke-miterlimit="10" x1="461.51" y1="226.97" x2="461.65" y2="226.84"/>
			<polyline fill="none" stroke="#000000" stroke-width="0" stroke-linecap="square" stroke-miterlimit="10" points="407.21,308.54 
				475.08,240.63 475.28,240.43 			"/>
			<polyline fill="none" stroke="#000000" stroke-width="0" stroke-linecap="square" stroke-miterlimit="10" points="141.79,233.63 
				141.82,233.66 155.43,247.26 			"/>
			
				<line fill="none" stroke="#000000" stroke-width="0" stroke-linecap="square" stroke-miterlimit="10" x1="393.62" y1="294.91" x2="407.21" y2="308.54"/>
			
				<line fill="none" stroke="#212830" stroke-width="0" stroke-linecap="square" stroke-miterlimit="10" x1="203.07" y1="485.59" x2="216.66" y2="499.22"/>
			<polyline fill="none" stroke="#212830" stroke-width="0" stroke-linecap="square" stroke-miterlimit="10" points="245.16,463.93 
				244.72,466.44 244.37,468.91 244.15,471.43 244.01,473.94 244.01,476.5 244.15,479.01 244.32,481.53 244.68,484 245.07,486.51 
				245.65,488.99 246.26,491.41 247.01,493.79 247.9,496.18 248.82,498.51 249.88,500.81 251.07,503.06 252.31,505.22 
				253.68,507.38 255.09,509.46 256.63,511.44 258.26,513.38 259.94,515.24 261.75,517.04 263.6,518.72 265.5,520.35 267.53,521.9 
				269.56,523.35 271.68,524.72 273.88,526 276.13,527.15 278.38,528.21 280.72,529.18 283.1,530.06 285.49,530.81 287.91,531.47 
				290.38,532.04 292.85,532.49 295.37,532.79 297.88,533.01 300.4,533.15 302.91,533.15 305.43,533.01 307.94,532.79 
				310.46,532.49 312.93,532.04 315.4,531.51 317.82,530.85 320.25,530.1 322.59,529.22 324.93,528.25 327.22,527.19 329.47,526.04 
				331.63,524.76 333.75,523.44 335.82,521.99 337.85,520.44 339.75,518.81 341.6,517.13 343.41,515.32 345.09,513.47 
				346.72,511.53 348.26,509.54 349.72,507.47 351.04,505.35 352.32,503.15 353.47,500.9 354.53,498.65 355.5,496.31 356.38,493.93 
				357.13,491.5 357.79,489.07 358.32,486.6 358.76,484.13 359.07,481.62 359.29,479.1 359.43,476.59 359.43,474.07 359.29,471.56 
				359.07,469.04 358.76,466.53 358.32,464.06 357.75,461.59 357.09,459.16 356.34,456.74 355.46,454.4 354.49,452.06 
				353.43,449.76 352.28,447.51 351,445.35 349.63,443.24 348.18,441.16 346.68,439.18 345.04,437.24 343.32,435.38 341.56,433.62 
				339.66,431.9 337.72,430.26 335.74,428.76 333.66,427.31 331.54,425.94 329.34,424.71 327.13,423.56 324.84,422.5 322.5,421.53 
				320.12,420.65 317.74,419.9 315.26,419.28 312.84,418.71 310.32,418.31 307.85,417.96 305.34,417.78 302.82,417.65 
				300.26,417.65 297.75,417.78 295.24,418 292.76,418.35 290.29,418.79 			"/>
			<polygon fill="none" stroke="#212830" stroke-width="0" stroke-linecap="square" stroke-miterlimit="10" points="349.81,475.4 
				349.76,473.1 349.59,470.81 349.32,468.56 348.93,466.31 348.44,464.06 347.87,461.85 347.16,459.65 346.37,457.53 
				345.44,455.41 344.47,453.34 343.37,451.31 342.18,449.37 340.9,447.47 339.53,445.66 338.07,443.9 336.53,442.18 334.9,440.54 
				333.22,439 331.46,437.54 329.6,436.18 327.71,434.9 325.76,433.71 323.74,432.6 321.71,431.63 319.59,430.71 317.47,429.91 
				315.26,429.21 313.06,428.63 310.81,428.15 308.56,427.75 306.31,427.49 304.01,427.31 301.72,427.26 299.43,427.31 
				297.13,427.49 294.88,427.75 292.63,428.15 290.38,428.63 288.18,429.21 285.97,429.91 283.85,430.71 281.74,431.63 
				279.71,432.6 277.68,433.71 275.74,434.9 273.84,436.18 271.99,437.54 270.22,439 268.54,440.54 266.91,442.18 265.37,443.9 
				263.91,445.66 262.54,447.47 261.26,449.37 260.07,451.31 258.97,453.34 258,455.41 257.07,457.53 256.28,459.65 255.57,461.85 
				255,464.06 254.51,466.31 254.12,468.56 253.85,470.81 253.68,473.1 253.63,475.4 253.68,477.69 253.85,479.99 254.12,482.24 
				254.51,484.49 255,486.74 255.57,488.94 256.28,491.15 257.07,493.26 258,495.38 258.97,497.46 260.07,499.44 261.26,501.43 
				262.54,503.32 263.91,505.13 265.37,506.9 266.91,508.62 268.54,510.25 270.22,511.79 271.99,513.25 273.84,514.62 275.74,515.9 
				277.68,517.09 279.71,518.19 281.74,519.16 283.85,520.09 285.97,520.88 288.18,521.59 290.38,522.16 292.63,522.65 
				294.88,523.04 297.13,523.31 299.43,523.49 301.72,523.53 304.01,523.49 306.31,523.31 308.56,523.04 310.81,522.65 
				313.06,522.16 315.26,521.59 317.47,520.88 319.59,520.09 321.71,519.16 323.74,518.19 325.76,517.09 327.71,515.9 329.6,514.62 
				331.46,513.25 333.22,511.79 334.9,510.25 336.53,508.62 338.07,506.9 339.53,505.13 340.9,503.32 342.18,501.43 343.37,499.44 
				344.47,497.46 345.44,495.38 346.37,493.26 347.16,491.15 347.87,488.94 348.44,486.74 348.93,484.49 349.32,482.24 
				349.59,479.99 349.76,477.69 			"/>
			<polyline fill="none" stroke="#212830" stroke-width="0" stroke-linecap="square" stroke-miterlimit="10" points="267.75,277.93 
				265.99,279.78 264.31,281.68 262.72,283.66 261.22,285.74 259.81,287.85 258.53,290.01 257.29,292.26 256.19,294.56 
				255.18,296.9 254.25,299.28 253.46,301.66 252.75,304.13 252.13,306.6 251.69,309.12 251.29,311.63 251.03,314.15 250.9,316.71 
				250.85,319.22 250.94,321.78 251.12,324.29 251.43,326.85 251.82,329.37 252.35,331.84 252.97,334.31 253.72,336.74 
				254.56,339.16 255.53,341.5 256.54,343.84 257.69,346.09 258.97,348.29 260.29,350.46 261.75,352.57 263.29,354.6 264.93,356.54 
				266.6,358.44 268.41,360.25 270.26,361.97 272.21,363.6 274.19,365.19 276.26,366.65 278.43,368.01 280.63,369.29 282.88,370.49 
				285.18,371.59 287.51,372.56 289.9,373.44 292.32,374.19 294.79,374.85 297.26,375.43 299.78,375.87 302.29,376.18 304.81,376.4 
				307.37,376.53 309.93,376.53 312.44,376.4 315,376.18 317.51,375.82 319.99,375.38 			"/>
			<polyline fill="none" stroke="#212830" stroke-width="0" stroke-linecap="square" stroke-miterlimit="10" points="274.54,284.76 
				272.96,286.4 271.46,288.12 270.04,289.93 268.72,291.78 267.49,293.72 266.34,295.71 265.32,297.74 264.35,299.85 
				263.51,301.97 262.76,304.13 262.1,306.34 261.57,308.54 261.13,310.79 260.82,313.04 260.6,315.34 260.47,317.63 260.47,319.93 
				260.6,322.22 260.82,324.51 261.13,326.76 261.57,329.01 262.1,331.22 262.76,333.43 263.51,335.59 264.35,337.71 265.32,339.82 
				266.34,341.85 267.49,343.84 268.72,345.78 270.04,347.63 271.46,349.44 272.96,351.16 274.54,352.79 276.22,354.38 
				277.94,355.88 279.75,357.29 281.6,358.66 283.54,359.9 285.53,361.04 287.56,362.06 289.63,363.03 291.75,363.87 293.91,364.62 
				296.12,365.28 298.32,365.81 300.57,366.25 302.87,366.56 305.12,366.78 307.41,366.91 309.71,366.91 312,366.78 314.25,366.56 
				316.54,366.25 318.79,365.81 321,365.28 323.21,364.62 325.37,363.87 327.49,363.03 329.56,362.06 331.59,361.04 333.57,359.9 
				335.51,358.66 337.37,357.29 339.18,355.88 340.9,354.38 342.57,352.79 			"/>
			
				<line fill="none" stroke="#212830" stroke-width="0" stroke-linecap="square" stroke-miterlimit="10" x1="308.56" y1="237.03" x2="315.35" y2="243.87"/>
			
				<line fill="none" stroke="#212830" stroke-width="0" stroke-linecap="square" stroke-miterlimit="10" x1="383.38" y1="311.94" x2="390.22" y2="318.78"/>
			
				<line fill="none" stroke="#212830" stroke-width="0" stroke-linecap="square" stroke-miterlimit="10" x1="226.85" y1="482.19" x2="220.06" y2="475.4"/>
		</g>
	</g>
</g>
</svg>
